<?xml version="1.0" encoding="UTF-8"?> <svg xmlns="http://www.w3.org/2000/svg" width="76" height="44" viewBox="0 0 76 44" fill="none"><path d="M25.5813 22.8875H25.7034C26.1665 22.9623 26.6349 23.002 27.1043 23.0062C28.3881 23.029 29.6557 22.7244 30.7807 22.1227C31.8433 21.5454 32.7719 20.7611 33.5085 19.8188C34.2474 18.8782 34.8233 17.8265 35.2136 16.7054C35.5992 15.6463 35.8021 14.5325 35.814 13.409C35.814 11.5163 35.2422 10.0796 34.0988 9.09889C33.0044 8.16135 31.5949 7.64569 30.1363 7.6492C29.3609 7.65315 28.5903 7.76722 27.8488 7.98779C25.547 8.61333 23.5266 9.96958 22.1091 11.8407C20.8933 13.4662 19.9554 15.2718 19.3313 17.188C18.7491 18.9533 18.4461 20.7943 18.4327 22.6481C18.4139 24.4401 18.7461 26.2191 19.4114 27.8904C19.9842 29.3791 20.9506 30.6946 22.2132 31.7043C23.4326 32.6578 24.9002 33.1339 26.616 33.1326C28.4946 33.1326 30.5032 32.5242 32.6419 31.3073C33.9761 30.42 34.7586 29.3076 34.9894 27.9701L35.0114 27.6335C35.0122 27.3537 34.9561 27.0766 34.8461 26.8181C34.7362 26.5595 34.5747 26.3247 34.371 26.1272C34.1673 25.9296 33.9253 25.7732 33.6591 25.6671C33.3929 25.5609 33.1077 25.507 32.82 25.5086C32.6343 25.5094 32.4492 25.5289 32.2677 25.567C31.6339 25.7743 31.0835 26.1706 30.6947 26.6995L30.6346 26.7793C30.3353 27.1491 29.9843 27.4766 29.5919 27.7522C29.1425 28.045 28.621 28.2162 28.081 28.2484C27.1684 28.2484 26.4739 27.6264 25.9976 26.3823C25.6077 25.3515 25.4006 24.2639 25.3852 23.1657C25.3772 22.9789 25.4453 22.8875 25.5813 22.8875ZM26.4159 17.5655C26.8052 15.6097 27.918 13.8603 29.5439 12.6482C29.8098 12.3892 30.1683 12.2401 30.5446 12.2318C31.1029 12.2318 31.3811 12.5217 31.3811 13.1055C31.3811 13.7924 31.1369 14.6622 30.6466 15.6857C30.1563 16.7093 29.618 17.439 29.0176 17.8632C28.4939 18.2314 27.8626 18.4265 27.2164 18.4197C26.9859 18.4314 26.7549 18.4078 26.532 18.3497C26.4677 18.328 26.413 18.2858 26.3766 18.23C26.3402 18.1741 26.3245 18.1079 26.3318 18.0422C26.3386 17.8804 26.3669 17.7202 26.4159 17.5655ZM8.6244 6.9662C8.75649 8.20962 8.82453 20.2703 7.51169 28.4313C6.19884 36.5924 1.3317 39.8401 0.62124 40.418C-0.0892183 40.9959 -0.131245 41.1088 0.198968 42.1207C0.529181 43.1325 2.56049 44.2417 4.67586 43.9537C6.79122 43.6657 9.16475 42.539 12.4369 35.0259C15.709 27.5129 16.0512 16.756 16.0292 12.1715C16.0072 7.58693 15.6309 4.82377 14.0079 2.10341C12.3848 -0.616942 9.90323 -0.0837677 7.69981 0.367679C5.49639 0.819126 2.80065 1.6111 1.72996 2.87399C0.659265 4.13687 0.781344 4.75956 1.4858 5.68191C2.19025 6.60426 3.00678 7.07322 4.37366 7.07322C5.9807 7.07322 8.49232 5.72472 8.6244 6.9662Z" fill="url(#paint0_linear_491_10234)"></path><path d="M41.9644 8.20075C40.2507 8.33029 39.6007 8.99129 38.6822 12.3573C37.7637 15.7233 36.6465 20.1903 36.4158 22.2362C36.1852 24.2821 35.4318 30.7607 36.056 31.7989C36.6803 32.8371 38.0917 34.3153 40.3879 33.5609C42.6841 32.8066 43.8351 26.8289 44.197 24.1544C44.5588 21.4799 45.7397 14.3403 45.4773 11.7915C45.2148 9.24274 44.0996 8.03693 41.9644 8.20075ZM46.4633 22.8686C46.5607 24.6402 47.4136 27.4176 49.9324 27.1356C52.4512 26.8537 52.7335 25.7831 53.3896 22.8686C54.0456 19.9541 53.5526 16.9424 53.0278 14.1441C52.5029 11.3458 49.9344 11.3077 48.3659 11.8544C45.7735 12.7668 46.356 21.1028 46.4633 22.8762V22.8686ZM54.7057 15.849C54.6082 18.5159 55.4293 20.8513 56.3478 25.3183C57.2662 29.7854 58.2185 32.3665 59.632 32.7742C61.0455 33.1818 63.276 33.119 63.9321 31.4846C64.5881 29.8501 63.5046 21.8571 63.3734 20.6361C63.2422 19.415 62.1926 15.7233 61.5345 13.6793C60.8765 11.6353 59.4272 10.2943 56.5446 11.2886C54.9045 11.8544 54.8011 13.1764 54.7057 15.849ZM73.0154 8.93224C70.7291 8.78366 66.93 11.4563 65.441 14.3917C63.952 17.3272 63.8665 20.036 65.8843 21.9695C67.9022 23.903 69.7749 23.9182 69.7093 25.0345C69.6437 26.1508 66.8048 26.8918 66.099 28.511C65.3933 30.1302 66.3932 32.3399 68.8564 32.3399C71.3196 32.3399 73.7807 30.7131 74.9298 28.2748C76.0789 25.8365 76.063 23.4725 74.3056 20.6284C72.5482 17.7844 70.8583 18.775 71.9418 16.4795C73.0253 14.1841 74.4348 13.7269 75.0451 13.144C75.6554 12.5611 76.0292 11.2562 75.3075 10.3762C74.5859 9.4961 74.0173 8.99701 73.0114 8.93224H73.0154Z" fill="#FF4C89"></path><defs><linearGradient id="paint0_linear_491_10234" x1="-6.11511" y1="34.1094" x2="31.1892" y2="5.19855" gradientUnits="userSpaceOnUse"><stop offset="0.15" stop-color="#FFBD11"></stop><stop offset="0.3" stop-color="#FF9E32"></stop><stop offset="0.49" stop-color="#FF7A58"></stop><stop offset="0.67" stop-color="#FF6173"></stop><stop offset="0.83" stop-color="#FF5183"></stop><stop offset="0.95" stop-color="#FF4C89"></stop></linearGradient></defs></svg> 