<svg width="262" height="32" viewBox="0 0 262 32" fill="none" xmlns="http://www.w3.org/2000/svg">
<path d="M40.7563 31.7753H32.7195V12.2413C32.7195 11.1296 32.326 10.1831 31.5416 9.40177C30.7572 8.62041 29.812 8.22849 28.7084 8.22849C27.6048 8.22849 26.6596 8.62041 25.8752 9.40177C25.0908 10.1831 24.6974 11.1296 24.6974 12.2413V31.7728H16.6605V12.2413C16.6605 11.1296 16.2671 10.1831 15.4827 9.40177C14.6983 8.62041 13.7531 8.22849 12.6495 8.22849C11.5459 8.22849 10.6007 8.62041 9.81628 9.40177C9.03189 10.1831 8.63846 11.1296 8.63846 12.2413V31.7728H0.601562V0.225098H28.701C32.0241 0.225098 34.8623 1.39837 37.2155 3.74245C39.5686 6.08653 40.7464 8.92112 40.7464 12.2413V31.7728L40.7563 31.7753Z" fill="#F9EBA2"/>
<path d="M67.0006 31.7753H58.9639V23.7251C58.9639 22.6159 58.5704 21.6694 57.7861 20.888C57.0017 20.1066 56.0565 19.7172 54.9529 19.7172C51.6298 19.7172 48.7917 18.5464 46.4386 16.2023C44.0855 13.8582 42.9077 11.0286 42.9077 7.70841V0.225098H50.9444V7.70841C50.9444 8.82006 51.3379 9.7641 52.1222 10.5455C52.9066 11.3268 53.8518 11.7163 54.9554 11.7163C58.2785 11.7163 61.1165 12.8871 63.4697 15.2312C65.8228 17.5752 67.0006 20.4049 67.0006 23.7251V31.7753Z" fill="#F9EBA2"/>
<path d="M77.8996 31.7753H69.8687V0.225098H77.8996V31.7753Z" fill="#F9EBA2"/>
<path d="M107.232 7.73145V10.0437L110.157 12.0485L107.232 14.0712V16.3804L113.685 12.0582L107.232 7.73145Z" fill="#F5F5F1"/>
<path d="M117.091 0.613281H99.467V11.6757L94.7397 17.8523L99.467 19.1051V31.4733H117.088V27.3651L106.535 27.3575C106.535 27.3575 104.277 27.5449 104.277 25.0997L104.295 17.4246L101.481 16.6651C100.761 16.4706 100.468 15.608 100.92 15.0148L104.277 10.6148L104.28 7.15818C104.28 7.15818 104.155 4.93964 106.639 4.93964L117.09 4.93209V0.613281H117.091Z" fill="#F5F5F1"/>
<path d="M139.016 31.4702L131.661 20.1117L125.09 31.4702H119.388L128.919 15.8033L119.171 0.745677H125.09L132.314 11.8866L138.842 0.745677H144.543L135.055 16.1515L144.934 31.4702H139.016Z" fill="#F5F5F1"/>
<path d="M152.725 19.546V31.4702H147.764V0.745677H158.209C161.748 0.745677 164.403 1.58705 166.173 3.26979C167.971 4.95253 168.871 7.25905 168.871 10.1893C168.871 13.0906 167.957 15.3826 166.129 17.0654C164.301 18.7191 161.661 19.546 158.209 19.546H152.725ZM157.686 15.4987C161.777 15.4987 163.823 13.7289 163.823 10.1893C163.823 8.44857 163.329 7.12849 162.343 6.22909C161.386 5.30068 159.833 4.83648 157.686 4.83648H152.725V15.4987H157.686Z" fill="#F5F5F1"/>
<path d="M177.312 4.74944V14.0625H188.627V17.8922H177.312V27.4229H189.932V31.4702H172.351V0.745677H189.932V4.74944H177.312Z" fill="#F5F5F1"/>
<path d="M210.023 31.4702L202.364 19.1978H198.839V31.4702H193.877V0.745677H204.714C208.224 0.745677 210.879 1.60155 212.678 3.31331C214.505 5.02506 215.419 7.28806 215.419 10.1023C215.419 12.5104 214.738 14.4832 213.374 16.0209C212.039 17.5586 210.096 18.545 207.542 18.9802L215.593 31.4702H210.023ZM198.839 15.6728H204.322C208.326 15.6728 210.328 13.903 210.328 10.3634C210.328 8.68067 209.834 7.3751 208.848 6.44669C207.891 5.48927 206.382 5.01056 204.322 5.01056H198.839V15.6728Z" fill="#F5F5F1"/>
<path d="M238.774 0.745677V4.74944H230.201V31.4702H225.196V4.74944H216.666V0.745677H238.774Z" fill="#F5F5F1"/>
<path d="M261.799 23.2886C261.799 24.7973 261.436 26.2044 260.711 27.51C259.985 28.7865 258.883 29.8165 257.403 30.5998C255.923 31.3832 254.11 31.7749 251.963 31.7749C249.874 31.7749 248.003 31.4122 246.349 30.6869C244.696 29.9325 243.375 28.8881 242.389 27.5535C241.403 26.2189 240.837 24.6812 240.692 22.9405H246.001C246.146 24.2751 246.712 25.4211 247.698 26.3785C248.714 27.3359 250.063 27.8146 251.746 27.8146C253.254 27.8146 254.415 27.4084 255.227 26.5961C256.069 25.7837 256.489 24.7393 256.489 23.4627C256.489 22.3602 256.185 21.4608 255.575 20.7645C254.966 20.0392 254.212 19.4734 253.312 19.0673C252.413 18.6611 251.18 18.1969 249.613 17.6746C247.698 17.0654 246.132 16.4561 244.913 15.8468C243.724 15.2376 242.708 14.3527 241.867 13.1922C241.025 12.0317 240.605 10.5085 240.605 8.62265C240.605 6.96892 241.011 5.51828 241.823 4.27073C242.636 3.02318 243.796 2.06576 245.305 1.39846C246.813 0.702157 248.554 0.354004 250.527 0.354004C253.66 0.354004 256.141 1.10834 257.969 2.617C259.826 4.12567 260.885 6.09854 261.146 8.53561H255.793C255.59 7.3751 255.039 6.38866 254.139 5.57631C253.269 4.73494 252.065 4.31425 250.527 4.31425C249.134 4.31425 248.017 4.67691 247.176 5.40223C246.335 6.09854 245.914 7.11398 245.914 8.44857C245.914 9.49303 246.204 10.3634 246.784 11.0597C247.365 11.727 248.09 12.2638 248.96 12.6699C249.86 13.0471 251.078 13.4968 252.616 14.019C254.56 14.6283 256.141 15.2521 257.36 15.8904C258.607 16.4996 259.652 17.399 260.493 18.5885C261.363 19.7781 261.799 21.3448 261.799 23.2886Z" fill="#F5F5F1"/>
</svg>
